<?xml version="1.0" encoding="UTF-8" standalone="no"?>
<!-- Generator: Adobe Illustrator 14.0.0, SVG Export Plug-In . SVG Version: 6.00 Build 43363)  -->

<svg
   xmlns:dc="http://purl.org/dc/elements/1.1/"
   xmlns:cc="http://creativecommons.org/ns#"
   xmlns:rdf="http://www.w3.org/1999/02/22-rdf-syntax-ns#"
   xmlns:svg="http://www.w3.org/2000/svg"
   xmlns="http://www.w3.org/2000/svg"
   xmlns:sodipodi="http://sodipodi.sourceforge.net/DTD/sodipodi-0.dtd"
   xmlns:inkscape="http://www.inkscape.org/namespaces/inkscape"
   version="1.1"
   id="Layer_1"
   x="0px"
   y="0px"
   width="477.60001"
   height="227.375"
   viewBox="0 0 477.60001 227.375"
   enable-background="new 0 0 800 640"
   xml:space="preserve"
   inkscape:version="0.48.4 r9939"
   sodipodi:docname="на стр_ о нас.svg"><metadata
   id="metadata35"><rdf:RDF><cc:Work
       rdf:about=""><dc:format>image/svg+xml</dc:format><dc:type
         rdf:resource="http://purl.org/dc/dcmitype/StillImage" /></cc:Work></rdf:RDF></metadata><defs
   id="defs33" /><sodipodi:namedview
   pagecolor="#ffffff"
   bordercolor="#666666"
   borderopacity="1"
   objecttolerance="10"
   gridtolerance="10"
   guidetolerance="10"
   inkscape:pageopacity="0"
   inkscape:pageshadow="2"
   inkscape:window-width="640"
   inkscape:window-height="480"
   id="namedview31"
   showgrid="false"
   fit-margin-top="0"
   fit-margin-left="0"
   fit-margin-right="0"
   fit-margin-bottom="0"
   inkscape:zoom="0.36875"
   inkscape:cx="239"
   inkscape:cy="113.375"
   inkscape:window-x="292"
   inkscape:window-y="223"
   inkscape:window-maximized="0"
   inkscape:current-layer="Layer_1" />
<g
   id="g3"
   transform="translate(-161,-206)">
	<polygon
   points="217.6,433.334 217.6,379.464 217.6,272.87 217.6,219 161,219 198.801,326.167 161,433.334 "
   id="polygon5"
   style="fill:#a4f06a" />
	<polygon
   points="582,433.334 582,379.464 582,272.87 582,219 638.6,219 600.799,326.167 638.6,433.334 "
   id="polygon7"
   style="fill:#a4f06a" />
	<polygon
   points="207.361,424.094 217.558,433.375 217.558,423.908 "
   id="polygon9"
   style="fill:#7bd439" />
	<polygon
   points="592.195,424.094 581.998,433.375 581.998,423.908 "
   id="polygon11"
   style="fill:#7bd439" />
</g>
<rect
   x="46.360992"
   y="0"
   width="385"
   height="218.104"
   id="rect13"
   style="fill:#d4f0bf" />
<line
   x1="270.96799"
   y1="52.160004"
   x2="409.72101"
   y2="52.160004"
   id="line15"
   style="fill:none;stroke:#7bd439" />
<line
   x1="68"
   y1="52.160004"
   x2="195.505"
   y2="52.160004"
   id="line17"
   style="fill:none;stroke:#7bd439" />
<g
   id="g19"
   transform="translate(-161,-206)">
	<path
   d="m 355.183,246.557 c -1.415,-10.909 6.353,-20.991 17.262,-22.406 l 34.493,-4.474 c 10.908,-1.415 20.991,6.353 22.406,17.262 l 4.474,34.493 c 1.415,10.909 -6.353,20.991 -17.262,22.406 l -34.493,4.474 c -10.908,1.415 -20.991,-6.353 -22.406,-17.262 l -4.474,-34.493 z"
   id="path21"
   inkscape:connector-curvature="0"
   style="fill:none;stroke:#7bd439;stroke-width:0.5" />
</g>
<g
   id="g23"
   transform="translate(-161,-206)">
	<path
   d="m 431.766,269.852 c 1.415,10.909 -6.354,20.991 -17.262,22.406 l -30.861,4.002 c -10.908,1.415 -20.991,-6.353 -22.406,-17.262 l -4.002,-30.861 c -1.415,-10.909 6.354,-20.991 17.262,-22.406 l 30.861,-4.002 c 10.908,-1.415 20.991,6.353 22.406,17.262 l 4.002,30.861 z"
   id="path25"
   inkscape:connector-curvature="0"
   style="fill:none;stroke:#7bd439" />
</g>
<g
   id="g27"
   transform="translate(-161,-206)">
	<path
   d="m 391.773,289.202 -23.087,-22.274 c -0.296,-0.259 -8.437,-7.694 -8.437,-16.576 0,-10.84 6.624,-17.315 17.688,-17.315 6.473,0 12.541,5.105 15.465,7.992 2.924,-2.887 8.992,-7.992 15.465,-7.992 11.063,0 17.687,6.476 17.687,17.315 0,8.882 -8.14,16.317 -8.474,16.651 l -23.049,22.199 c -0.442,0.445 -1.035,0.666 -1.629,0.666 -0.594,0 -1.186,-0.221 -1.629,-0.666 z"
   id="path29"
   inkscape:connector-curvature="0"
   style="fill:#7bd439" />
</g>
</svg>