<?xml version="1.0" encoding="UTF-8" standalone="no"?>
<!-- Generator: Adobe Illustrator 14.0.0, SVG Export Plug-In . SVG Version: 6.00 Build 43363)  -->

<svg
   xmlns:dc="http://purl.org/dc/elements/1.1/"
   xmlns:cc="http://creativecommons.org/ns#"
   xmlns:rdf="http://www.w3.org/1999/02/22-rdf-syntax-ns#"
   xmlns:svg="http://www.w3.org/2000/svg"
   xmlns="http://www.w3.org/2000/svg"
   xmlns:xlink="http://www.w3.org/1999/xlink"
   xmlns:sodipodi="http://sodipodi.sourceforge.net/DTD/sodipodi-0.dtd"
   xmlns:inkscape="http://www.inkscape.org/namespaces/inkscape"
   version="1.1"
   id="Layer_1"
   x="0px"
   y="0px"
   width="174.91716"
   height="83.976433"
   viewBox="0 0 174.91716 83.976433"
   enable-background="new 0 0 374 251"
   xml:space="preserve"
   inkscape:version="0.48.4 r9939"
   sodipodi:docname="logo.svg"><metadata
   id="metadata73"><rdf:RDF><cc:Work
       rdf:about=""><dc:format>image/svg+xml</dc:format><dc:type
         rdf:resource="http://purl.org/dc/dcmitype/StillImage" /><dc:title></dc:title></cc:Work></rdf:RDF></metadata><defs
   id="defs71" /><sodipodi:namedview
   pagecolor="#ffffff"
   bordercolor="#666666"
   borderopacity="1"
   objecttolerance="10"
   gridtolerance="10"
   guidetolerance="10"
   inkscape:pageopacity="0"
   inkscape:pageshadow="2"
   inkscape:window-width="1078"
   inkscape:window-height="784"
   id="namedview69"
   showgrid="false"
   fit-margin-top="0"
   fit-margin-left="0"
   fit-margin-right="0"
   fit-margin-bottom="0"
   inkscape:zoom="0.94023904"
   inkscape:cx="85.581165"
   inkscape:cy="46.544996"
   inkscape:window-x="0"
   inkscape:window-y="0"
   inkscape:window-maximized="0"
   inkscape:current-layer="Layer_1" />

<path
   d="m 17.201165,46.309431 c 6.622,2.217 9.051,7.646 9.169,13.785 0.164,8.514 5.28,10.854 6.458,11.444"
   id="path5"
   inkscape:connector-curvature="0"
   style="fill:none;stroke:#999999;stroke-width:2" />
<g
   id="g7"
   transform="translate(-101.41884,-88.068569)">
	<g
   id="g9">
		<path
   d="M 147.886,149.637 V 109.96 h 2.157 v 5.222 c 1.333,-3.935 3.885,-5.903 7.657,-5.903 6.134,0 9.201,5.147 9.201,15.439 0,10.407 -3.105,15.609 -9.315,15.609 -4.229,0 -6.743,-2.137 -7.543,-6.414 v 15.724 h -2.157 z m 2.157,-24.919 c 0,9.12 2.421,13.68 7.266,13.68 4.805,0 7.208,-4.56 7.208,-13.68 0,-9.006 -2.271,-13.509 -6.812,-13.509 -2.687,0 -4.636,1.098 -5.846,3.292 -1.212,2.195 -1.816,5.601 -1.816,10.217 z"
   id="path11"
   inkscape:connector-curvature="0"
   style="fill:#ffffff" />
		<path
   d="m 171.215,111.89 v -1.93 h 4.03 v -8.798 h 2.157 v 8.798 h 4.938 v 1.93 h -4.938 v 22.875 c 0,2.195 0.87,3.293 2.611,3.293 1.021,0 1.91,-0.114 2.667,-0.341 v 1.93 c -1.06,0.227 -2.082,0.341 -3.065,0.341 -2.915,0 -4.371,-1.665 -4.371,-4.995 V 111.89 h -4.029 z"
   id="path13"
   inkscape:connector-curvature="0"
   style="fill:#ffffff" />
		<path
   d="m 187.165,104.908 v -5.79 h 2.157 v 5.79 h -2.157 z m 0,34.738 V 109.96 h 2.157 v 29.687 h -2.157 z"
   id="path15"
   inkscape:connector-curvature="0"
   style="fill:#ffffff" />
		<path
   d="M 197.382,139.646 V 109.96 h 2.157 v 4.428 c 0.949,-3.406 3.343,-5.109 7.181,-5.109 3.761,0 5.908,1.854 6.44,5.563 h 0.113 c 0.267,-1.324 0.95,-2.517 2.053,-3.576 1.404,-1.324 3.152,-1.987 5.243,-1.987 4.748,0 7.124,2.518 7.124,7.55 v 22.818 h -2.157 v -22.308 c 0,-1.967 -0.464,-3.481 -1.391,-4.541 -0.928,-1.059 -2.167,-1.589 -3.718,-1.589 -2.157,0 -3.832,0.804 -5.023,2.412 -1.192,1.608 -1.788,3.718 -1.788,6.329 v 19.696 h -2.157 V 118.36 c 0,-4.768 -1.741,-7.151 -5.222,-7.151 -2.195,0 -3.898,0.87 -5.109,2.61 -1.06,1.59 -1.589,3.633 -1.589,6.131 v 19.696 h -2.157 z"
   id="path17"
   inkscape:connector-curvature="0"
   style="fill:#ffffff" />
		<path
   d="m 235.753,104.908 v -5.79 h 2.157 v 5.79 h -2.157 z m 0,34.738 V 109.96 h 2.157 v 29.687 h -2.157 z"
   id="path19"
   inkscape:connector-curvature="0"
   style="fill:#ffffff" />
		<path
   d="m 260.501,118.304 h -2.157 v -0.852 c 0,-4.162 -1.854,-6.243 -5.563,-6.243 -3.822,0 -5.733,1.836 -5.733,5.506 0,2.801 1.477,4.749 4.428,5.847 l 4.541,1.702 c 3.595,1.362 5.393,3.993 5.393,7.891 0,2.422 -0.823,4.39 -2.469,5.903 -1.646,1.514 -3.681,2.27 -6.103,2.27 -5.866,0 -8.798,-3.121 -8.798,-9.365 v -0.795 h 2.157 v 0.965 c 0,4.845 2.213,7.266 6.641,7.266 2.081,0 3.651,-0.624 4.712,-1.873 0.983,-1.097 1.476,-2.534 1.476,-4.313 0,-2.876 -1.476,-4.9 -4.428,-6.074 l -4.371,-1.759 c -3.709,-1.477 -5.563,-3.954 -5.563,-7.437 0,-2.421 0.747,-4.304 2.242,-5.647 1.494,-1.343 3.453,-2.016 5.875,-2.016 5.146,0 7.72,2.706 7.72,8.117 v 0.907 z"
   id="path21"
   inkscape:connector-curvature="0"
   style="fill:#ffffff" />
		<path
   d="m 264.871,111.89 v -1.93 h 4.03 v -8.798 h 2.157 v 8.798 h 4.938 v 1.93 h -4.938 v 22.875 c 0,2.195 0.87,3.293 2.61,3.293 1.022,0 1.911,-0.114 2.668,-0.341 v 1.93 c -1.06,0.227 -2.081,0.341 -3.065,0.341 -2.914,0 -4.37,-1.665 -4.37,-4.995 V 111.89 h -4.03 z"
   id="path23"
   inkscape:connector-curvature="0"
   style="fill:#ffffff" />
	</g>
</g>
<g
   id="g25"
   transform="translate(-101.41884,-88.068569)">
	<path
   d="m 149.462,160.88 c 0.261,-0.125 0.528,-0.227 0.801,-0.307 0.273,-0.079 0.603,-0.119 0.989,-0.119 0.489,0 0.92,0.071 1.295,0.213 0.376,0.143 0.688,0.375 0.938,0.699 0.25,0.324 0.438,0.753 0.563,1.286 0.125,0.535 0.187,1.193 0.187,1.979 0,0.783 -0.065,1.442 -0.195,1.977 -0.131,0.534 -0.327,0.963 -0.588,1.287 -0.262,0.324 -0.589,0.558 -0.981,0.699 -0.391,0.141 -0.855,0.213 -1.389,0.213 -0.534,0 -0.997,-0.072 -1.389,-0.213 -0.393,-0.142 -0.719,-0.375 -0.98,-0.699 -0.262,-0.324 -0.458,-0.753 -0.588,-1.287 -0.131,-0.534 -0.197,-1.193 -0.197,-1.977 v -2.813 c 0,-0.977 0.074,-1.792 0.222,-2.446 0.147,-0.653 0.389,-1.179 0.724,-1.576 0.335,-0.397 0.776,-0.685 1.321,-0.861 0.545,-0.176 1.21,-0.28 1.994,-0.315 l 1.875,-0.085 0.085,0.683 c -0.296,0.125 -0.619,0.244 -0.972,0.357 -0.352,0.113 -0.767,0.194 -1.245,0.238 -0.432,0.046 -0.801,0.132 -1.108,0.256 -0.307,0.125 -0.562,0.308 -0.767,0.546 -0.204,0.239 -0.355,0.543 -0.452,0.912 -0.097,0.369 -0.143,0.82 -0.143,1.353 z m 0,3.751 c 0,0.637 0.04,1.165 0.119,1.584 0.08,0.422 0.193,0.754 0.341,0.998 0.147,0.244 0.318,0.415 0.512,0.511 0.192,0.097 0.409,0.146 0.647,0.146 0.239,0 0.455,-0.049 0.648,-0.146 0.192,-0.096 0.363,-0.267 0.511,-0.511 0.147,-0.244 0.261,-0.576 0.341,-0.998 0.079,-0.419 0.12,-0.947 0.12,-1.584 0,-0.614 -0.043,-1.126 -0.128,-1.535 -0.085,-0.408 -0.21,-0.732 -0.376,-0.972 -0.164,-0.238 -0.369,-0.405 -0.614,-0.502 -0.244,-0.097 -0.525,-0.145 -0.844,-0.145 -0.261,0 -0.507,0.033 -0.741,0.102 -0.233,0.068 -0.412,0.147 -0.537,0.238 v 2.814 z"
   id="path27"
   inkscape:connector-curvature="0"
   style="fill:#999999" />
	<path
   d="m 157.729,160.113 v 3.58 h 1.107 c 0.092,-1.33 0.389,-2.287 0.896,-2.873 0.505,-0.584 1.23,-0.878 2.173,-0.878 0.511,0 0.957,0.074 1.338,0.222 0.381,0.148 0.698,0.396 0.954,0.742 0.256,0.346 0.449,0.804 0.58,1.372 0.131,0.568 0.197,1.267 0.197,2.097 0,0.829 -0.066,1.528 -0.197,2.096 -0.13,0.569 -0.324,1.026 -0.58,1.372 -0.256,0.347 -0.573,0.595 -0.954,0.742 -0.381,0.147 -0.827,0.222 -1.338,0.222 -0.943,0 -1.671,-0.301 -2.183,-0.904 -0.511,-0.602 -0.807,-1.607 -0.887,-3.016 h -1.107 v 3.749 h -1.534 v -8.522 h 1.535 z m 4.176,7.756 c 0.215,0 0.417,-0.054 0.604,-0.162 0.187,-0.108 0.35,-0.296 0.486,-0.563 0.136,-0.267 0.245,-0.625 0.324,-1.074 0.08,-0.448 0.12,-1.015 0.12,-1.695 0,-0.682 -0.04,-1.248 -0.12,-1.696 -0.079,-0.449 -0.188,-0.808 -0.324,-1.073 -0.136,-0.268 -0.298,-0.455 -0.486,-0.563 -0.188,-0.108 -0.389,-0.162 -0.604,-0.162 -0.216,0 -0.418,0.054 -0.605,0.162 -0.187,0.108 -0.35,0.296 -0.486,0.563 -0.136,0.266 -0.245,0.624 -0.324,1.073 -0.08,0.448 -0.12,1.015 -0.12,1.696 0,0.681 0.04,1.247 0.12,1.695 0.079,0.449 0.188,0.808 0.324,1.074 0.136,0.266 0.298,0.454 0.486,0.563 0.188,0.109 0.389,0.162 0.605,0.162 z"
   id="path29"
   inkscape:connector-curvature="0"
   style="fill:#999999" />
	<path
   d="m 168.297,160.625 c 0.215,-0.217 0.483,-0.384 0.801,-0.504 0.317,-0.118 0.647,-0.179 0.988,-0.179 0.443,0 0.841,0.072 1.193,0.214 0.352,0.143 0.647,0.384 0.886,0.724 0.238,0.341 0.42,0.796 0.545,1.364 0.125,0.567 0.187,1.278 0.187,2.131 0,0.852 -0.063,1.563 -0.187,2.13 -0.125,0.568 -0.307,1.023 -0.545,1.364 -0.239,0.34 -0.535,0.583 -0.886,0.725 -0.353,0.141 -0.75,0.213 -1.193,0.213 -0.341,0 -0.645,-0.041 -0.913,-0.12 -0.266,-0.079 -0.53,-0.181 -0.792,-0.307 v 3.665 h -1.535 v -11.932 h 1.279 l 0.085,0.512 h 0.087 z m 0.086,6.817 c 0.125,0.092 0.301,0.171 0.527,0.238 0.228,0.069 0.45,0.104 0.665,0.104 0.273,0 0.52,-0.049 0.742,-0.145 0.222,-0.097 0.409,-0.274 0.563,-0.529 0.153,-0.256 0.272,-0.605 0.357,-1.048 0.085,-0.443 0.128,-1.007 0.128,-1.688 0,-0.682 -0.043,-1.241 -0.128,-1.68 -0.085,-0.437 -0.205,-0.783 -0.357,-1.039 -0.154,-0.256 -0.341,-0.436 -0.563,-0.537 -0.222,-0.103 -0.468,-0.154 -0.742,-0.154 -0.215,0 -0.437,0.035 -0.665,0.104 -0.227,0.067 -0.402,0.147 -0.527,0.238 v 6.136 z"
   id="path31"
   inkscape:connector-curvature="0"
   style="fill:#999999" />
	<path
   d="m 180.74,164.375 c 0,0.829 -0.067,1.528 -0.204,2.096 -0.136,0.569 -0.338,1.026 -0.605,1.372 -0.268,0.347 -0.596,0.595 -0.989,0.742 -0.392,0.147 -0.844,0.222 -1.355,0.222 -0.511,0 -0.962,-0.074 -1.354,-0.222 -0.392,-0.148 -0.722,-0.396 -0.988,-0.742 -0.268,-0.346 -0.469,-0.803 -0.605,-1.372 -0.136,-0.567 -0.205,-1.267 -0.205,-2.096 0,-0.83 0.069,-1.528 0.205,-2.097 0.136,-0.569 0.338,-1.026 0.605,-1.372 0.266,-0.347 0.596,-0.595 0.988,-0.742 0.392,-0.147 0.844,-0.222 1.354,-0.222 0.512,0 0.963,0.074 1.355,0.222 0.393,0.147 0.721,0.396 0.989,0.742 0.267,0.346 0.469,0.804 0.605,1.372 0.136,0.568 0.204,1.267 0.204,2.097 z m -1.533,0 c 0,-0.682 -0.046,-1.248 -0.136,-1.696 -0.092,-0.449 -0.211,-0.808 -0.358,-1.073 -0.148,-0.268 -0.318,-0.455 -0.512,-0.563 -0.193,-0.108 -0.397,-0.162 -0.614,-0.162 -0.215,0 -0.42,0.054 -0.614,0.162 -0.192,0.108 -0.363,0.296 -0.511,0.563 -0.148,0.266 -0.268,0.624 -0.358,1.073 -0.092,0.448 -0.136,1.015 -0.136,1.696 0,0.681 0.044,1.247 0.136,1.695 0.09,0.449 0.21,0.808 0.358,1.074 0.147,0.267 0.318,0.454 0.511,0.563 0.193,0.108 0.398,0.162 0.614,0.162 0.216,0 0.42,-0.054 0.614,-0.162 0.194,-0.108 0.364,-0.296 0.512,-0.563 0.146,-0.267 0.266,-0.625 0.358,-1.074 0.09,-0.448 0.136,-1.014 0.136,-1.695 z"
   id="path33"
   inkscape:connector-curvature="0"
   style="fill:#999999" />
	<path
   d="m 188.496,156.704 v 11.932 h -1.534 v -11.932 h 1.534 z"
   id="path35"
   inkscape:connector-curvature="0"
   style="fill:#999999" />
	<path
   d="m 189.859,156.704 h 6.988 v 1.193 h -2.727 v 10.738 h -1.535 v -10.738 h -2.727 v -1.193 z"
   id="path37"
   inkscape:connector-curvature="0"
   style="fill:#999999" />
	<path
   d="m 203.923,168.636 h -1.534 v -8.522 h 5.88 v 8.522 h -1.533 v -7.415 h -2.813 v 7.415 z"
   id="path39"
   inkscape:connector-curvature="0"
   style="fill:#999999" />
	<path
   d="m 211.935,160.625 c 0.215,-0.217 0.482,-0.384 0.801,-0.504 0.317,-0.118 0.647,-0.179 0.988,-0.179 0.443,0 0.841,0.072 1.193,0.214 0.352,0.143 0.647,0.384 0.887,0.724 0.238,0.341 0.42,0.796 0.545,1.364 0.125,0.567 0.188,1.278 0.188,2.131 0,0.852 -0.063,1.563 -0.188,2.13 -0.125,0.568 -0.307,1.023 -0.545,1.364 -0.239,0.34 -0.535,0.583 -0.887,0.725 -0.353,0.141 -0.75,0.213 -1.193,0.213 -0.341,0 -0.645,-0.041 -0.912,-0.12 -0.267,-0.079 -0.531,-0.181 -0.792,-0.307 v 3.665 h -1.534 v -11.932 h 1.278 l 0.085,0.512 h 0.086 z m 0.085,6.817 c 0.125,0.092 0.301,0.171 0.527,0.238 0.228,0.069 0.449,0.104 0.665,0.104 0.273,0 0.521,-0.049 0.741,-0.145 0.222,-0.097 0.409,-0.274 0.563,-0.529 0.152,-0.256 0.272,-0.605 0.357,-1.048 0.086,-0.443 0.128,-1.007 0.128,-1.688 0,-0.682 -0.042,-1.241 -0.128,-1.68 -0.085,-0.437 -0.205,-0.783 -0.357,-1.039 -0.154,-0.256 -0.342,-0.436 -0.563,-0.537 -0.221,-0.103 -0.468,-0.154 -0.741,-0.154 -0.216,0 -0.438,0.035 -0.665,0.104 -0.227,0.067 -0.402,0.147 -0.527,0.238 v 6.136 z"
   id="path41"
   inkscape:connector-curvature="0"
   style="fill:#999999" />
	<path
   d="m 224.376,164.375 c 0,0.829 -0.067,1.528 -0.204,2.096 -0.136,0.569 -0.338,1.026 -0.605,1.372 -0.267,0.347 -0.596,0.595 -0.988,0.742 -0.392,0.147 -0.844,0.222 -1.355,0.222 -0.511,0 -0.962,-0.074 -1.354,-0.222 -0.392,-0.148 -0.722,-0.396 -0.988,-0.742 -0.268,-0.346 -0.47,-0.803 -0.605,-1.372 -0.137,-0.567 -0.205,-1.267 -0.205,-2.096 0,-0.83 0.068,-1.528 0.205,-2.097 0.136,-0.568 0.338,-1.026 0.605,-1.372 0.267,-0.347 0.596,-0.595 0.988,-0.742 0.392,-0.147 0.844,-0.222 1.354,-0.222 0.512,0 0.964,0.074 1.355,0.222 0.393,0.147 0.722,0.396 0.988,0.742 0.268,0.346 0.47,0.804 0.605,1.372 0.137,0.569 0.204,1.267 0.204,2.097 z m -1.533,0 c 0,-0.682 -0.046,-1.248 -0.137,-1.696 -0.091,-0.449 -0.211,-0.808 -0.357,-1.073 -0.147,-0.268 -0.318,-0.455 -0.512,-0.563 -0.194,-0.108 -0.397,-0.162 -0.614,-0.162 -0.215,0 -0.42,0.054 -0.613,0.162 -0.193,0.108 -0.363,0.296 -0.512,0.563 -0.147,0.266 -0.267,0.624 -0.357,1.073 -0.092,0.448 -0.137,1.015 -0.137,1.696 0,0.681 0.045,1.247 0.137,1.695 0.091,0.449 0.21,0.808 0.357,1.074 0.148,0.267 0.318,0.454 0.512,0.563 0.194,0.109 0.398,0.162 0.613,0.162 0.217,0 0.421,-0.054 0.614,-0.162 0.193,-0.108 0.364,-0.296 0.512,-0.563 0.146,-0.267 0.267,-0.625 0.357,-1.074 0.091,-0.448 0.137,-1.014 0.137,-1.695 z"
   id="path43"
   inkscape:connector-curvature="0"
   style="fill:#999999" />
	<path
   d="m 231.877,164.887 h -4.432 c 0,0.557 0.045,1.02 0.137,1.389 0.09,0.369 0.229,0.665 0.417,0.887 0.188,0.222 0.432,0.381 0.733,0.478 0.301,0.096 0.667,0.145 1.1,0.145 h 1.704 v 0.682 c -0.261,0.091 -0.583,0.17 -0.964,0.239 -0.38,0.067 -0.74,0.102 -1.082,0.102 -0.637,0 -1.182,-0.072 -1.636,-0.213 -0.455,-0.142 -0.827,-0.385 -1.116,-0.725 -0.291,-0.341 -0.501,-0.796 -0.631,-1.364 -0.131,-0.567 -0.196,-1.278 -0.196,-2.13 0,-0.853 0.063,-1.563 0.188,-2.131 0.125,-0.568 0.313,-1.023 0.563,-1.364 0.249,-0.34 0.563,-0.581 0.938,-0.724 0.375,-0.142 0.807,-0.214 1.295,-0.214 0.489,0 0.921,0.072 1.296,0.214 0.375,0.143 0.688,0.384 0.938,0.724 0.25,0.341 0.438,0.796 0.563,1.364 0.125,0.567 0.188,1.278 0.188,2.131 v 0.51 z m -1.534,-1.025 c 0,-0.579 -0.039,-1.059 -0.12,-1.439 -0.078,-0.381 -0.184,-0.685 -0.314,-0.912 -0.13,-0.228 -0.284,-0.39 -0.46,-0.485 -0.177,-0.097 -0.361,-0.146 -0.555,-0.146 -0.192,0 -0.378,0.049 -0.554,0.146 -0.176,0.096 -0.33,0.258 -0.46,0.485 -0.131,0.228 -0.235,0.531 -0.314,0.912 -0.081,0.381 -0.12,0.86 -0.12,1.439 h 2.897 z"
   id="path45"
   inkscape:connector-curvature="0"
   style="fill:#999999" />
	<path
   d="m 237.229,164.153 c 0.307,0.068 0.577,0.21 0.81,0.426 0.233,0.216 0.423,0.603 0.57,1.159 l 0.427,1.619 c 0.046,0.171 0.142,0.313 0.29,0.427 0.147,0.113 0.392,0.17 0.732,0.17 v 0.682 c -0.08,0.034 -0.17,0.063 -0.272,0.086 -0.193,0.056 -0.415,0.085 -0.665,0.085 -0.478,0 -0.85,-0.123 -1.116,-0.366 -0.267,-0.244 -0.463,-0.605 -0.588,-1.083 l -0.426,-1.619 c -0.194,-0.683 -0.568,-1.022 -1.125,-1.022 h -0.579 v 3.92 h -1.535 v -8.522 h 1.535 v 3.494 h 0.579 c 0.181,0 0.352,-0.073 0.511,-0.222 0.159,-0.147 0.307,-0.415 0.443,-0.801 l 0.427,-1.193 c 0.181,-0.5 0.392,-0.866 0.63,-1.1 0.238,-0.234 0.597,-0.35 1.074,-0.35 0.102,0 0.21,0.009 0.323,0.026 0.113,0.017 0.217,0.036 0.307,0.06 0.113,0.034 0.217,0.062 0.308,0.085 v 0.682 c -0.341,0 -0.583,0.057 -0.725,0.17 -0.143,0.115 -0.241,0.256 -0.299,0.427 l -0.425,1.193 c -0.183,0.511 -0.364,0.872 -0.547,1.082 -0.182,0.21 -0.403,0.35 -0.664,0.417 v 0.068 z"
   id="path47"
   inkscape:connector-curvature="0"
   style="fill:#999999" />
	<path
   d="m 246.364,160.113 v 1.107 h -2.216 v 7.415 h -1.533 v -7.415 h -2.216 v -1.107 h 5.965 z"
   id="path49"
   inkscape:connector-curvature="0"
   style="fill:#999999" />
	<path
   d="m 253.438,164.375 c 0,0.829 -0.067,1.528 -0.204,2.096 -0.137,0.569 -0.338,1.026 -0.605,1.372 -0.268,0.347 -0.596,0.595 -0.988,0.742 -0.392,0.147 -0.844,0.222 -1.355,0.222 -0.511,0 -0.963,-0.074 -1.354,-0.222 -0.393,-0.147 -0.723,-0.396 -0.988,-0.742 -0.268,-0.346 -0.47,-0.803 -0.606,-1.372 -0.136,-0.567 -0.204,-1.267 -0.204,-2.096 0,-0.83 0.068,-1.528 0.204,-2.097 0.137,-0.568 0.339,-1.026 0.606,-1.372 0.266,-0.347 0.596,-0.595 0.988,-0.742 0.392,-0.147 0.844,-0.222 1.354,-0.222 0.512,0 0.963,0.074 1.355,0.222 0.392,0.148 0.721,0.396 0.988,0.742 0.268,0.346 0.469,0.804 0.605,1.372 0.136,0.568 0.204,1.267 0.204,2.097 z m -1.534,0 c 0,-0.682 -0.045,-1.248 -0.136,-1.696 -0.092,-0.449 -0.211,-0.808 -0.358,-1.073 -0.147,-0.268 -0.318,-0.455 -0.512,-0.563 -0.194,-0.108 -0.397,-0.162 -0.613,-0.162 -0.216,0 -0.421,0.054 -0.614,0.162 -0.192,0.108 -0.363,0.296 -0.511,0.563 -0.147,0.266 -0.268,0.624 -0.357,1.073 -0.092,0.448 -0.137,1.015 -0.137,1.696 0,0.681 0.045,1.247 0.137,1.695 0.09,0.449 0.21,0.808 0.357,1.074 0.147,0.266 0.318,0.454 0.511,0.563 0.193,0.108 0.398,0.162 0.614,0.162 0.216,0 0.42,-0.054 0.613,-0.162 0.193,-0.108 0.364,-0.296 0.512,-0.563 0.148,-0.267 0.267,-0.625 0.358,-1.074 0.091,-0.448 0.136,-1.014 0.136,-1.695 z"
   id="path51"
   inkscape:connector-curvature="0"
   style="fill:#999999" />
	<path
   d="m 255.314,160.284 c 0.432,-0.125 0.858,-0.214 1.278,-0.265 0.42,-0.051 0.846,-0.077 1.278,-0.077 0.488,0 0.92,0.038 1.296,0.111 0.374,0.074 0.687,0.202 0.937,0.383 0.25,0.183 0.438,0.427 0.563,0.733 0.125,0.308 0.188,0.693 0.188,1.159 0,0.272 -0.035,0.509 -0.104,0.708 -0.067,0.198 -0.159,0.366 -0.272,0.502 -0.113,0.137 -0.241,0.248 -0.383,0.333 -0.143,0.085 -0.287,0.156 -0.435,0.212 v 0.069 c 0.192,0.057 0.381,0.136 0.563,0.238 0.181,0.103 0.347,0.239 0.494,0.409 0.147,0.17 0.265,0.375 0.35,0.613 0.084,0.239 0.127,0.518 0.127,0.835 0,0.513 -0.065,0.933 -0.195,1.263 -0.132,0.329 -0.327,0.591 -0.588,0.783 -0.263,0.193 -0.588,0.326 -0.98,0.4 -0.392,0.074 -0.854,0.111 -1.39,0.111 -0.511,0 -0.985,-0.026 -1.424,-0.077 -0.437,-0.051 -0.871,-0.14 -1.303,-0.264 v -8.179 z m 1.535,0.681 v 2.729 h 1.022 c 0.432,0 0.78,-0.1 1.048,-0.299 0.268,-0.198 0.4,-0.555 0.4,-1.065 0,-0.512 -0.133,-0.866 -0.4,-1.065 -0.268,-0.198 -0.616,-0.299 -1.048,-0.299 h -1.022 z m 1.192,6.819 c 0.512,0 0.909,-0.105 1.193,-0.315 0.284,-0.21 0.427,-0.617 0.427,-1.22 0,-0.603 -0.143,-1.008 -0.427,-1.218 -0.284,-0.21 -0.682,-0.315 -1.193,-0.315 h -1.192 v 3.068 h 1.192 z"
   id="path53"
   inkscape:connector-curvature="0"
   style="fill:#999999" />
</g>
<path
   d="M 5.207165,4.3034312 0.05716503,38.317431 c -0.417,2.751 1.49299997,5.343 4.24399997,5.759 l 12.262,1.857 -5.823,5.717 1.795,0.272 7.587,1.148 1.797,0.272 -3.87,-7.187 12.262,1.857 c 2.751,0.417 5.343,-1.493 5.76,-4.245 l 5.15,-34.0129998 c 0.416,-2.751 -1.494,-5.343 -4.245,-5.76 l -26.01,-3.93799996 c -2.751,-0.414 -5.343,1.49499996 -5.759,4.24699996 z m 4,0.606 c 0.081,-0.532 0.621,-0.929 1.153,-0.849 l 26.01,3.938 c 0.532,0.08 0.929,0.62 0.849,1.151 l -5.086,33.5959998 c -0.081,0.533 -0.62,0.931 -1.152,0.85 l -26.011,-3.938 c -0.532,-0.081 -0.929,-0.619 -0.849,-1.151 l 5.086,-33.5969998 z"
   id="path55"
   inkscape:connector-curvature="0"
   style="fill:#8fff00" />
<g
   id="g57"
   transform="translate(-101.41884,-88.068569)">
	<defs
   id="defs59">
		<path
   id="SVGID_1_"
   d="m 106.626,92.372 -5.15,34.014 c -0.417,2.751 1.493,5.343 4.244,5.759 l 12.262,1.857 -5.823,5.717 1.795,0.272 7.587,1.148 1.797,0.272 -3.87,-7.187 12.262,1.857 c 2.751,0.417 5.343,-1.493 5.76,-4.245 l 5.15,-34.013 c 0.416,-2.751 -1.494,-5.343 -4.245,-5.76 l -26.01,-3.938 c -2.751,-0.414 -5.343,1.495 -5.759,4.247 z m 4,0.606 c 0.081,-0.532 0.621,-0.929 1.153,-0.849 l 26.01,3.938 c 0.532,0.08 0.929,0.62 0.849,1.151 l -5.086,33.596 c -0.081,0.533 -0.62,0.931 -1.152,0.85 l -26.011,-3.938 c -0.532,-0.081 -0.929,-0.619 -0.849,-1.151 l 5.086,-33.597 z"
   inkscape:connector-curvature="0" />
	</defs>
	<clipPath
   id="SVGID_2_">
		<use
   xlink:href="#SVGID_1_"
   overflow="visible"
   id="use63"
   style="overflow:visible"
   x="0"
   y="0"
   width="374"
   height="251" />
	</clipPath>
	<g
   clip-path="url(#SVGID_2_)"
   id="g65">
		<path
   d="m 125.515,142.291 -14.791,-2.241 5.823,-5.717 -10.457,-1.584 c -1.572,-0.236 -2.959,-1.076 -3.908,-2.363 -0.949,-1.287 -1.339,-2.862 -1.101,-4.433 l 5.15,-34.015 c 0.438,-2.895 2.976,-5.076 5.904,-5.076 0.297,0 0.598,0.022 0.893,0.067 l 26.01,3.938 c 3.255,0.493 5.502,3.542 5.01,6.798 l -5.15,34.013 c -0.438,2.895 -2.977,5.078 -5.905,5.078 l 0,0 c -0.298,0 -0.598,-0.022 -0.893,-0.068 l -10.457,-1.583 3.872,7.186 0,0 z m -9.969,-1.111 8.199,1.146 -4.036,-7.528 -0.658,0.026 -4.521,4.438 1.016,1.918 z m 2.649,-7.18 14.587,3.152 c 2.326,0.341 4.482,-2.6 4.825,-4.812 l 5.261,-34.013 c 0.349,-2.262 -0.595,-5.03 -2.904,-5.373 l -26.575,-3.938 c -3.014,-0.425 -5.032,0.331 -5.848,3.977 l -5.261,34.014 c -0.168,1.091 0.11,2.184 0.784,3.078 0.674,0.894 1.13,1.392 2.266,2.147 l 11.73,2.145 h 0.378 L 118.195,134 z m 14.656,-1.409 c -0.09,0 -0.18,-0.006 -0.269,-0.021 l -25.338,-3.836 c -1.005,-0.152 -1.725,-1.13 -1.573,-2.133 l 4.956,-32.729 c 0.147,-0.981 1.125,-1.719 2.134,-1.574 l 25.338,3.838 c 0.478,0.072 0.923,0.345 1.22,0.747 0.295,0.402 0.426,0.907 0.354,1.386 l -4.957,32.729 c -0.139,0.909 -0.941,1.593 -1.865,1.593 l 0,0 z m -20.78,-39.39 c -0.045,0 -0.108,0.057 -0.113,0.084 l -5.086,33.597 c -0.004,0.033 0.051,0.108 0.084,0.114 l 26.01,3.938 c 0,0 0,0 0.001,0 0.043,0 0.108,-0.055 0.113,-0.085 l 5.086,-33.595 c 0.006,-0.047 -0.038,-0.107 -0.083,-0.113 l -26.012,-3.94 0,0 z"
   id="path67"
   inkscape:connector-curvature="0"
   style="fill:#578900" />
	</g>
</g>
</svg>