<?xml version="1.0" encoding="UTF-8" standalone="no"?>
<!-- Generator: Adobe Illustrator 14.0.0, SVG Export Plug-In . SVG Version: 6.00 Build 43363)  -->

<svg
   xmlns:dc="http://purl.org/dc/elements/1.1/"
   xmlns:cc="http://creativecommons.org/ns#"
   xmlns:rdf="http://www.w3.org/1999/02/22-rdf-syntax-ns#"
   xmlns:svg="http://www.w3.org/2000/svg"
   xmlns="http://www.w3.org/2000/svg"
   xmlns:xlink="http://www.w3.org/1999/xlink"
   xmlns:sodipodi="http://sodipodi.sourceforge.net/DTD/sodipodi-0.dtd"
   xmlns:inkscape="http://www.inkscape.org/namespaces/inkscape"
   version="1.1"
   x="0px"
   y="0px"
   width="300"
   height="325"
   viewBox="0 0 300 325"
   enable-background="new 0 0 1026 409"
   xml:space="preserve"
   id="svg2"
   inkscape:version="0.48.4 r9939"
   sodipodi:docname="что мы предлагаем.svg"><metadata
   id="metadata502"><rdf:RDF><cc:Work
       rdf:about=""><dc:format>image/svg+xml</dc:format><dc:type
         rdf:resource="http://purl.org/dc/dcmitype/StillImage" /><dc:title></dc:title></cc:Work></rdf:RDF></metadata><defs
   id="defs500">
	
	
	
	
	
	
	
	
	
	
	
	
</defs><sodipodi:namedview
   pagecolor="#ffffff"
   bordercolor="#666666"
   borderopacity="1"
   objecttolerance="10"
   gridtolerance="10"
   guidetolerance="10"
   inkscape:pageopacity="0"
   inkscape:pageshadow="2"
   inkscape:window-width="1680"
   inkscape:window-height="988"
   id="namedview498"
   showgrid="false"
   fit-margin-top="0"
   fit-margin-left="0"
   fit-margin-right="0"
   fit-margin-bottom="0"
   inkscape:zoom="0.39473684"
   inkscape:cx="-158"
   inkscape:cy="357.16667"
   inkscape:window-x="-8"
   inkscape:window-y="-8"
   inkscape:window-maximized="1"
   inkscape:current-layer="svg2" />

<g
   id="g108"
   transform="translate(-671,-34)">
		<path
   style="fill:#43453c"
   inkscape:connector-curvature="0"
   id="path110"
   d="m 971,344 c 0,8.25 -6.75,15 -15,15 H 686 c -8.25,0 -15,-6.75 -15,-15 V 49 c 0,-8.25 6.75,-15 15,-15 h 270 c 8.25,0 15,6.75 15,15 v 295 z" />
	</g><circle
   style="fill:#91a483"
   sodipodi:ry="75.405998"
   sodipodi:rx="75.405998"
   sodipodi:cy="189.40601"
   sodipodi:cx="821.96899"
   id="circle112"
   r="75.405998"
   cy="189.40601"
   cx="821.96899"
   transform="translate(-671,-34)" /><circle
   style="fill:#d4f0bf"
   sodipodi:ry="72.905998"
   sodipodi:rx="72.905998"
   sodipodi:cy="190.65601"
   sodipodi:cx="823.21899"
   id="circle114"
   r="72.905998"
   cy="190.65601"
   cx="823.21899"
   transform="translate(-671,-34)" /><g
   id="g116"
   transform="translate(-671,-34)">
		<defs
   id="defs118">
			<circle
   sodipodi:ry="72.905998"
   sodipodi:rx="72.905998"
   sodipodi:cy="190.65601"
   sodipodi:cx="823.21899"
   r="72.905998"
   cy="190.65601"
   cx="823.21899"
   id="SVGID_3_" />
		</defs>
		<clipPath
   id="SVGID_4_">
			<use
   height="409"
   width="1026"
   y="0"
   x="0"
   style="overflow:visible"
   id="use122"
   overflow="visible"
   xlink:href="#SVGID_3_" />
		</clipPath>
		<g
   id="g124"
   clip-path="url(#SVGID_4_)">
			<g
   id="g128">
				<g
   id="g130">
					<path
   style="fill:#cccccc"
   inkscape:connector-curvature="0"
   id="path132"
   d="m 840.433,227.601 c 0,0 -5.016,-2.231 -6.688,-5.572 -1.672,-3.34 -2.787,-12.258 -2.787,-12.258 h -8.352 -1.674 -8.354 c 0,0 -1.113,8.918 -2.784,12.258 -1.672,3.341 -6.688,5.572 -6.688,5.572 l -0.557,2.228 h 18.382 1.674 18.382 l -0.554,-2.228 z" />
					<path
   style="fill:#999999"
   inkscape:connector-curvature="0"
   id="path134"
   d="m 831.668,214.334 c -0.452,-2.507 -0.71,-4.564 -0.71,-4.564 h -8.352 -1.674 -8.354 c 0,0 -0.257,2.057 -0.708,4.564 h 19.798 z" />
					<path
   style="fill:#e6e6e6"
   inkscape:connector-curvature="0"
   id="path136"
   d="m 865.813,142 h -88.085 c -2.32,0 -4.22,1.899 -4.22,4.22 v 60.036 c 0,2.321 1.899,4.22 4.22,4.22 h 88.085 c 2.321,0 4.22,-1.899 4.22,-4.22 V 146.22 c -10e-4,-2.321 -1.899,-4.22 -4.22,-4.22 z m -3.57,53.411 h -80.946 v -46.66 h 80.946 v 46.66 z" />
					<linearGradient
   y2="200.04849"
   x2="821.8551"
   y1="206.0127"
   x1="821.68951"
   gradientUnits="userSpaceOnUse"
   id="SVGID_5_">
						<stop
   id="stop139"
   style="stop-color:#FFFFFF"
   offset="0" />
						<stop
   id="stop141"
   style="stop-color:#666666"
   offset="1" />
					</linearGradient>
					<path
   inkscape:connector-curvature="0"
   style="fill:url(#SVGID_5_)"
   id="path143"
   d="m 824.507,203.126 c 0,1.511 -1.225,2.736 -2.735,2.736 l 0,0 c -1.515,0 -2.739,-1.226 -2.739,-2.736 l 0,0 c 0,-1.511 1.225,-2.736 2.739,-2.736 l 0,0 c 1.51,0.001 2.735,1.226 2.735,2.736 l 0,0 z" />
					<rect
   style="fill:#29abe2"
   id="rect145"
   height="46.644001"
   width="81.126999"
   y="148.625"
   x="781.133" />
					<text
   style="font-size:44.96659851px;fill:#ffffff;font-family:Cuprum-Regular"
   id="text147"
   font-size="44.9666"
   transform="translate(810.9746,187.2495)">A</text>

					<g
   id="g149">
						<g
   id="g151">
							<line
   style="fill:none;stroke:#ffffff;stroke-width:0.25"
   id="line153"
   y2="195.22701"
   x2="873.146"
   y1="148.631"
   x1="873.146" />
						</g>
						<g
   id="g155">
							<line
   style="fill:none;stroke:#ffffff;stroke-width:0.25"
   id="line157"
   y2="195.22701"
   x2="868.146"
   y1="148.631"
   x1="868.146" />
						</g>
						<g
   id="g159">
							<line
   style="fill:none;stroke:#ffffff;stroke-width:0.25"
   id="line161"
   y2="195.22701"
   x2="863.146"
   y1="148.631"
   x1="863.146" />
						</g>
						<g
   id="g163">
							<line
   style="fill:none;stroke:#ffffff;stroke-width:0.25"
   id="line165"
   y2="195.22701"
   x2="858.146"
   y1="148.631"
   x1="858.146" />
						</g>
						<g
   id="g167">
							<line
   style="fill:none;stroke:#ffffff;stroke-width:0.25"
   id="line169"
   y2="195.22701"
   x2="853.146"
   y1="148.631"
   x1="853.146" />
						</g>
						<g
   id="g171">
							<line
   style="fill:none;stroke:#ffffff;stroke-width:0.25"
   id="line173"
   y2="195.22701"
   x2="848.146"
   y1="148.631"
   x1="848.146" />
						</g>
						<g
   id="g175">
							<line
   style="fill:none;stroke:#ffffff;stroke-width:0.25"
   id="line177"
   y2="195.22701"
   x2="843.146"
   y1="148.631"
   x1="843.146" />
						</g>
						<g
   id="g179">
							<line
   style="fill:none;stroke:#ffffff;stroke-width:0.25"
   id="line181"
   y2="195.22701"
   x2="838.146"
   y1="148.631"
   x1="838.146" />
						</g>
						<g
   id="g183">
							<line
   style="fill:none;stroke:#ffffff;stroke-width:0.25"
   id="line185"
   y2="195.22701"
   x2="833.146"
   y1="148.631"
   x1="833.146" />
						</g>
						<g
   id="g187">
							<line
   style="fill:none;stroke:#ffffff;stroke-width:0.25"
   id="line189"
   y2="195.22701"
   x2="828.146"
   y1="148.631"
   x1="828.146" />
						</g>
						<g
   id="g191">
							<line
   style="fill:none;stroke:#ffffff;stroke-width:0.25"
   id="line193"
   y2="195.22701"
   x2="823.146"
   y1="148.631"
   x1="823.146" />
						</g>
						<g
   id="g195">
							<line
   style="fill:none;stroke:#ffffff;stroke-width:0.25"
   id="line197"
   y2="195.22701"
   x2="818.146"
   y1="148.631"
   x1="818.146" />
						</g>
						<g
   id="g199">
							<line
   style="fill:none;stroke:#ffffff;stroke-width:0.25"
   id="line201"
   y2="195.22701"
   x2="813.146"
   y1="148.631"
   x1="813.146" />
						</g>
						<g
   id="g203">
							<line
   style="fill:none;stroke:#ffffff;stroke-width:0.25"
   id="line205"
   y2="195.22701"
   x2="808.146"
   y1="148.631"
   x1="808.146" />
						</g>
						<g
   id="g207">
							<line
   style="fill:none;stroke:#ffffff;stroke-width:0.25"
   id="line209"
   y2="195.22701"
   x2="803.146"
   y1="148.631"
   x1="803.146" />
						</g>
						<g
   id="g211">
							<line
   style="fill:none;stroke:#ffffff;stroke-width:0.25"
   id="line213"
   y2="195.22701"
   x2="798.146"
   y1="148.631"
   x1="798.146" />
						</g>
						<g
   id="g215">
							<line
   style="fill:none;stroke:#ffffff;stroke-width:0.25"
   id="line217"
   y2="195.22701"
   x2="793.146"
   y1="148.631"
   x1="793.146" />
						</g>
						<g
   id="g219">
							<line
   style="fill:none;stroke:#ffffff;stroke-width:0.25"
   id="line221"
   y2="195.22701"
   x2="788.146"
   y1="148.631"
   x1="788.146" />
						</g>
						<g
   id="g223">
							<line
   style="fill:none;stroke:#ffffff;stroke-width:0.25"
   id="line225"
   y2="195.22701"
   x2="783.146"
   y1="148.631"
   x1="783.146" />
						</g>
					</g>
					<g
   id="g227">
						<g
   id="g229">
							<line
   style="fill:none;stroke:#ffffff;stroke-width:0.25"
   id="line231"
   y2="200.964"
   x2="780.91498"
   y1="200.964"
   x1="862.49402" />
						</g>
						<g
   id="g233">
							<line
   style="fill:none;stroke:#ffffff;stroke-width:0.25"
   id="line235"
   y2="195.964"
   x2="780.91498"
   y1="195.964"
   x1="862.49402" />
						</g>
						<g
   id="g237">
							<line
   style="fill:none;stroke:#ffffff;stroke-width:0.25"
   id="line239"
   y2="190.964"
   x2="780.91498"
   y1="190.964"
   x1="862.49402" />
						</g>
						<g
   id="g241">
							<line
   style="fill:none;stroke:#ffffff;stroke-width:0.25"
   id="line243"
   y2="185.964"
   x2="780.91498"
   y1="185.964"
   x1="862.49402" />
						</g>
						<g
   id="g245">
							<line
   style="fill:none;stroke:#ffffff;stroke-width:0.25"
   id="line247"
   y2="180.964"
   x2="780.91498"
   y1="180.964"
   x1="862.49402" />
						</g>
						<g
   id="g249">
							<line
   style="fill:none;stroke:#ffffff;stroke-width:0.25"
   id="line251"
   y2="175.964"
   x2="780.91498"
   y1="175.964"
   x1="862.49402" />
						</g>
						<g
   id="g253">
							<line
   style="fill:none;stroke:#ffffff;stroke-width:0.25"
   id="line255"
   y2="170.964"
   x2="780.91498"
   y1="170.964"
   x1="862.49402" />
						</g>
						<g
   id="g257">
							<line
   style="fill:none;stroke:#ffffff;stroke-width:0.25"
   id="line259"
   y2="165.964"
   x2="780.91498"
   y1="165.964"
   x1="862.49402" />
						</g>
						<g
   id="g261">
							<line
   style="fill:none;stroke:#ffffff;stroke-width:0.25"
   id="line263"
   y2="160.964"
   x2="780.91498"
   y1="160.964"
   x1="862.49402" />
						</g>
						<g
   id="g265">
							<line
   style="fill:none;stroke:#ffffff;stroke-width:0.25"
   id="line267"
   y2="155.964"
   x2="780.91498"
   y1="155.964"
   x1="862.49402" />
						</g>
						<g
   id="g269">
							<line
   style="fill:none;stroke:#ffffff;stroke-width:0.25"
   id="line271"
   y2="150.964"
   x2="780.91498"
   y1="150.964"
   x1="862.49402" />
						</g>
					</g>
					<path
   style="fill:#231f20"
   inkscape:connector-curvature="0"
   id="path273"
   d="m 892.51,239.057 c 0,3.249 -2.659,5.908 -5.908,5.908 h -29.39 c -3.249,0 -5.907,-2.659 -5.907,-5.908 v -58.234 c 0,-3.249 2.658,-5.908 5.907,-5.908 h 29.39 c 3.249,0 5.908,2.659 5.908,5.908 v 58.234 z" />
					<rect
   style="fill:#29abe2"
   id="rect275"
   height="47.263"
   width="32.633999"
   y="186.168"
   x="855.59003" />
					<linearGradient
   y2="180.9525"
   x2="872.13641"
   y1="183.01421"
   x1="872.0791"
   gradientUnits="userSpaceOnUse"
   id="SVGID_6_">
						<stop
   id="stop278"
   style="stop-color:#333333"
   offset="0" />
						<stop
   id="stop280"
   style="stop-color:#1A1A1A"
   offset="1" />
					</linearGradient>
					<path
   inkscape:connector-curvature="0"
   style="fill:url(#SVGID_6_);stroke:#b3b3b3;stroke-width:0.5"
   id="path282"
   d="m 876.607,182.016 c 0,0.467 -0.379,0.844 -0.845,0.844 h -7.314 c -0.467,0 -0.844,-0.377 -0.844,-0.844 l 0,0 c 0,-0.466 0.377,-0.844 0.844,-0.844 h 7.314 c 0.467,0 0.845,0.378 0.845,0.844 l 0,0 z" />
					<linearGradient
   y2="177.8235"
   x2="872.12579"
   y1="179.2583"
   x1="872.08588"
   gradientUnits="userSpaceOnUse"
   id="SVGID_7_">
						<stop
   id="stop285"
   style="stop-color:#333333"
   offset="0" />
						<stop
   id="stop287"
   style="stop-color:#1A1A1A"
   offset="1" />
					</linearGradient>
					<path
   inkscape:connector-curvature="0"
   style="fill:url(#SVGID_7_);stroke:#b3b3b3;stroke-width:0.5"
   id="path289"
   d="m 875.24,178.563 c 0,0.325 -0.264,0.588 -0.588,0.588 h -5.094 c -0.325,0 -0.588,-0.263 -0.588,-0.588 l 0,0 c 0,-0.325 0.263,-0.587 0.588,-0.587 h 5.094 c 0.325,0 0.588,0.263 0.588,0.587 l 0,0 z" />
					<linearGradient
   y2="181.04539"
   x2="863.47998"
   y1="182.9277"
   x1="863.42767"
   gradientUnits="userSpaceOnUse"
   id="SVGID_8_">
						<stop
   id="stop292"
   style="stop-color:#333333"
   offset="0" />
						<stop
   id="stop294"
   style="stop-color:#1A1A1A"
   offset="1" />
					</linearGradient>
					<circle
   sodipodi:ry="0.86299998"
   sodipodi:rx="0.86299998"
   sodipodi:cy="182.01601"
   sodipodi:cx="863.453"
   style="fill:url(#SVGID_8_);stroke:#b3b3b3;stroke-width:0.5"
   id="circle296"
   r="0.86299998"
   cy="182.01601"
   cx="863.453"
   d="m 864.316,182.01601 c 0,0.47662 -0.38638,0.863 -0.863,0.863 -0.47662,0 -0.863,-0.38638 -0.863,-0.863 0,-0.47663 0.38638,-0.863 0.863,-0.863 0.47662,0 0.863,0.38637 0.863,0.863 z" />
					<text
   style="font-size:44.96659851px;fill:#ffffff;font-family:Cuprum-Regular"
   id="text298"
   font-size="44.9666"
   transform="translate(861.4941,225.1748)">Я</text>

					<g
   id="g300">
						<g
   id="g302">
							<line
   style="fill:none;stroke:#ffffff;stroke-width:0.25"
   id="line304"
   y2="239.224"
   x2="855.56299"
   y1="239.224"
   x1="888.14099" />
						</g>
						<g
   id="g306">
							<line
   style="fill:none;stroke:#ffffff;stroke-width:0.25"
   id="line308"
   y2="234.224"
   x2="855.56299"
   y1="234.224"
   x1="888.14099" />
						</g>
						<g
   id="g310">
							<line
   style="fill:none;stroke:#ffffff;stroke-width:0.25"
   id="line312"
   y2="229.224"
   x2="855.56299"
   y1="229.224"
   x1="888.14099" />
						</g>
						<g
   id="g314">
							<line
   style="fill:none;stroke:#ffffff;stroke-width:0.25"
   id="line316"
   y2="224.224"
   x2="855.56299"
   y1="224.224"
   x1="888.14099" />
						</g>
						<g
   id="g318">
							<line
   style="fill:none;stroke:#ffffff;stroke-width:0.25"
   id="line320"
   y2="219.224"
   x2="855.56299"
   y1="219.224"
   x1="888.14099" />
						</g>
						<g
   id="g322">
							<line
   style="fill:none;stroke:#ffffff;stroke-width:0.25"
   id="line324"
   y2="214.224"
   x2="855.56299"
   y1="214.224"
   x1="888.14099" />
						</g>
						<g
   id="g326">
							<line
   style="fill:none;stroke:#ffffff;stroke-width:0.25"
   id="line328"
   y2="209.224"
   x2="855.56299"
   y1="209.224"
   x1="888.14099" />
						</g>
						<g
   id="g330">
							<line
   style="fill:none;stroke:#ffffff;stroke-width:0.25"
   id="line332"
   y2="204.224"
   x2="855.56299"
   y1="204.224"
   x1="888.14099" />
						</g>
						<g
   id="g334">
							<line
   style="fill:none;stroke:#ffffff;stroke-width:0.25"
   id="line336"
   y2="199.224"
   x2="855.56299"
   y1="199.224"
   x1="888.14099" />
						</g>
						<g
   id="g338">
							<line
   style="fill:none;stroke:#ffffff;stroke-width:0.25"
   id="line340"
   y2="194.224"
   x2="855.56299"
   y1="194.224"
   x1="888.14099" />
						</g>
						<g
   id="g342">
							<line
   style="fill:none;stroke:#ffffff;stroke-width:0.25"
   id="line344"
   y2="189.224"
   x2="855.56299"
   y1="189.224"
   x1="888.14099" />
						</g>
					</g>
					<g
   id="g346">
						<g
   id="g348">
							<line
   style="fill:none;stroke:#ffffff;stroke-width:0.25"
   id="line350"
   y2="233.489"
   x2="889.12701"
   y1="186.15401"
   x1="889.12701" />
						</g>
						<g
   id="g352">
							<line
   style="fill:none;stroke:#ffffff;stroke-width:0.25"
   id="line354"
   y2="233.489"
   x2="884.12701"
   y1="186.15401"
   x1="884.12701" />
						</g>
						<g
   id="g356">
							<line
   style="fill:none;stroke:#ffffff;stroke-width:0.25"
   id="line358"
   y2="233.489"
   x2="879.12701"
   y1="186.15401"
   x1="879.12701" />
						</g>
						<g
   id="g360">
							<line
   style="fill:none;stroke:#ffffff;stroke-width:0.25"
   id="line362"
   y2="233.489"
   x2="874.12701"
   y1="186.15401"
   x1="874.12701" />
						</g>
						<g
   id="g364">
							<line
   style="fill:none;stroke:#ffffff;stroke-width:0.25"
   id="line366"
   y2="233.489"
   x2="869.12701"
   y1="186.15401"
   x1="869.12701" />
						</g>
						<g
   id="g368">
							<line
   style="fill:none;stroke:#ffffff;stroke-width:0.25"
   id="line370"
   y2="233.489"
   x2="864.12701"
   y1="186.15401"
   x1="864.12701" />
						</g>
						<g
   id="g372">
							<line
   style="fill:none;stroke:#ffffff;stroke-width:0.25"
   id="line374"
   y2="233.489"
   x2="859.12701"
   y1="186.15401"
   x1="859.12701" />
						</g>
					</g>
				</g>
			</g>
		</g>
	</g>
</svg>